<?xml version="1.0" encoding="UTF-8" standalone="no"?>
<!-- Created with Inkscape (http://www.inkscape.org/) -->

<svg
   width="291.30685mm"
   height="80.235435mm"
   viewBox="0 0 291.30685 80.235435"
   version="1.1"
   id="svg1"
   xml:space="preserve"
   inkscape:version="1.3 (0e150ed6c4, 2023-07-21)"
   sodipodi:docname="onekonek_svg.svg"
   inkscape:export-filename="onekonekpng.svg"
   inkscape:export-xdpi="120"
   inkscape:export-ydpi="120"
   xmlns:inkscape="http://www.inkscape.org/namespaces/inkscape"
   xmlns:sodipodi="http://sodipodi.sourceforge.net/DTD/sodipodi-0.dtd"
   xmlns:xlink="http://www.w3.org/1999/xlink"
   xmlns="http://www.w3.org/2000/svg"
   xmlns:svg="http://www.w3.org/2000/svg"><sodipodi:namedview
     id="namedview1"
     pagecolor="#ffffff"
     bordercolor="#424242"
     borderopacity="1"
     inkscape:showpageshadow="0"
     inkscape:pageopacity="0"
     inkscape:pagecheckerboard="0"
     inkscape:deskcolor="#434343"
     inkscape:document-units="mm"
     inkscape:zoom="0.65834035"
     inkscape:cx="341.76851"
     inkscape:cy="44.050163"
     inkscape:window-width="1920"
     inkscape:window-height="974"
     inkscape:window-x="-11"
     inkscape:window-y="-11"
     inkscape:window-maximized="1"
     inkscape:current-layer="layer1" /><defs
     id="defs1"><linearGradient
       id="swatch16"
       inkscape:swatch="solid"><stop
         style="stop-color:#0d75b2;stop-opacity:1;"
         offset="0"
         id="stop16" /></linearGradient><linearGradient
       id="swatch7"
       inkscape:swatch="solid"><stop
         style="stop-color:#0d75b2;stop-opacity:1;"
         offset="0"
         id="stop7" /></linearGradient><linearGradient
       id="swatch6"
       inkscape:swatch="solid"><stop
         style="stop-color:#000000;stop-opacity:1;"
         offset="0"
         id="stop6" /></linearGradient><linearGradient
       id="swatch2"
       inkscape:swatch="solid"><stop
         style="stop-color:#000000;stop-opacity:1;"
         offset="0"
         id="stop2" /></linearGradient><linearGradient
       id="swatch15"
       inkscape:swatch="solid"><stop
         style="stop-color:#000000;stop-opacity:1;"
         offset="0"
         id="stop15" /></linearGradient><linearGradient
       inkscape:collect="always"
       xlink:href="#swatch7"
       id="linearGradient10"
       gradientUnits="userSpaceOnUse"
       gradientTransform="translate(2.0345031,68.206685)"
       x1="125.75876"
       y1="37.544838"
       x2="187.06223"
       y2="37.544838" /></defs><g
     inkscape:label="Layer 1"
     inkscape:groupmode="layer"
     id="layer1"
     transform="translate(-3.4990067,-60.909906)"><g
       id="g20"
       inkscape:label="logo1"
       transform="matrix(2.1956846,0,0,2.1205484,-77.614185,-154.77512)"><g
         id="g1"
         transform="matrix(0.215269,0,0,0.215269,16.693498,92.83775)"><path
           d="m 262.14648,104.89453 c -0.57628,2.09831 -1.41489,4.11609 -2.49609,6.00586 -0.84583,1.33491 -1.81208,2.59012 -2.88672,3.75 -0.39506,0.55784 -0.81205,1.09993 -1.25,1.625 -1.60961,1.60409 -3.42325,2.99092 -5.39453,4.125 -0.5181,0.23456 -1.04377,0.45212 -1.57617,0.65234 0.0288,0.21539 0.0568,0.43089 0.084,0.64649 0.14921,1.42605 0.26122,2.85555 0.33594,4.28711 0.0745,1.43244 0.11161,2.8665 0.11133,4.30078 1.7e-4,4.04276 -0.29681,8.0804 -0.88867,12.08203 -0.59171,4.00156 -1.47678,7.95695 -2.64844,11.83594 -1.17198,3.87849 -2.62751,7.67071 -4.35547,11.34765 -1.72852,3.67735 -3.72515,7.23003 -5.97461,10.63086 -2.24881,3.40112 -4.74476,6.6418 -7.46875,9.69727 -0.4704,0.46757 -0.94634,0.92984 -1.42773,1.38672 -2.31208,2.53357 -4.77808,4.93044 -7.38477,7.17773 -3.14404,2.64775 -6.47871,5.07386 -9.97851,7.25977 -3.49961,2.18556 -7.15541,4.1254 -10.93946,5.80469 -3.78391,1.67921 -7.68643,3.09362 -11.67773,4.23242 -3.99095,1.13939 -8.06056,2.00031 -12.17774,2.57617 -4.11743,0.57505 -8.2719,0.86354 -12.43164,0.86328 -2.56605,-0.068 -5.1278,-0.24592 -7.67773,-0.5332 2.33309,0.57256 4.68909,1.05796 7.0625,1.45508 4.33021,0.58997 8.69942,0.88629 13.07422,0.88671 4.37545,-3.3e-4 8.74531,-0.29666 13.07617,-0.88671 4.33042,-0.58964 8.61086,-1.47145 12.80859,-2.63868 4.19759,-1.16722 8.30179,-2.61687 12.28125,-4.33789 3.97998,-1.72109 7.82507,-3.70923 11.50586,-5.94922 3.68064,-2.24002 7.18762,-4.72617 10.49414,-7.43945 3.30592,-2.7131 6.403,-5.64636 9.26758,-8.77734 2.86501,-3.13115 5.49019,-6.45211 7.85547,-9.9375 2.36565,-3.4852 4.4654,-7.12599 6.2832,-10.89453 1.81718,-3.76874 3.34777,-7.65559 4.58008,-11.63086 1.23279,-3.97497 2.1642,-8.02827 2.78711,-12.12891 0.62282,-4.10123 0.93547,-8.23939 0.93555,-12.38281 -2.5e-4,-1.42317 -0.0374,-2.84613 -0.11133,-4.26758 -0.0738,-1.42228 -0.18456,-2.84263 -0.33203,-4.25977 -0.14695,-1.41681 -0.3306,-2.83 -0.55078,-4.23828 -0.22078,-1.4081 -0.47802,-2.81088 -0.77149,-4.20703 -0.29338,-1.39611 -0.62291,-2.78521 -0.98828,-4.16601 -0.35191,-1.32612 -0.73678,-2.6442 -1.1543,-3.95313 z"
           style="fill:#01a702;fill-opacity:1;stroke:none;stroke-width:0.5;stroke-linejoin:bevel;paint-order:fill markers stroke"
           id="path22" /><path
           d="m 174.17969,42.984375 c -4.37475,-2.26e-4 -8.74396,0.295449 -13.07422,0.884766 -3.87219,0.555472 -7.70294,1.344846 -11.46875,2.363281 4.00313,-0.551383 8.04085,-0.832007 12.08398,-0.839844 1.47532,1.48e-4 2.95041,0.03662 4.42383,0.109375 1.47395,0.07247 2.94578,0.181229 4.41406,0.326172 1.46737,0.144954 2.93074,0.326002 4.38868,0.542969 1.45884,0.21744 2.91178,0.470778 4.35742,0.759765 1.44506,0.288792 2.88238,0.613116 4.31054,0.972657 1.42866,0.358883 2.84774,0.752891 4.25586,1.18164 1.40771,0.429748 2.804,0.894091 4.1875,1.392578 1.38409,0.498061 2.75498,1.030135 4.11133,1.595703 1.35588,0.565207 2.69681,1.163709 4.02149,1.794922 1.32439,0.631769 2.6321,1.296048 3.92187,1.992188 1.29024,0.695786 2.56214,1.423236 3.81445,2.18164 1.25215,0.758605 2.48432,1.547924 3.69532,2.367188 1.21137,0.81888 2.40121,1.667463 3.56836,2.544922 1.16667,0.877952 2.31027,1.784497 3.42968,2.71875 0.88417,0.745328 1.75284,1.507855 2.60547,2.287109 0.22698,0.197418 0.4529,0.395989 0.67774,0.595703 1.06988,0.987807 2.11384,2.001808 3.13086,3.041016 0.74213,0.768669 1.46947,1.550709 2.18164,2.345703 0.69816,-0.324958 1.41045,-0.618868 2.13476,-0.880859 0.33299,-0.145671 0.669,-0.284374 1.00781,-0.416016 2.19831,-0.587263 4.46437,-0.884721 6.74024,-0.884766 0.80207,2.1e-4 1.60371,0.03736 2.40234,0.111329 0.79898,0.07402 1.5941,0.184817 2.38282,0.332031 0.48622,0.09949 0.96949,0.212818 1.44921,0.339844 -0.35626,-0.398242 -0.7163,-0.793442 -1.08007,-1.185547 -1.0096,-1.054529 -2.04637,-2.085442 -3.10938,-3.091797 -1.06293,-1.006924 -2.1518,-1.988995 -3.26562,-2.945313 -1.11376,-0.955994 -2.25213,-1.885965 -3.41407,-2.789062 -1.16202,-0.903056 -2.34727,-1.778974 -3.55468,-2.626953 -1.20773,-0.848111 -2.43728,-1.668022 -3.6875,-2.458985 -1.25024,-0.791132 -2.52081,-1.553083 -3.81055,-2.285156 -1.28893,-0.731436 -2.59662,-1.432822 -3.92188,-2.103516 -1.3263,-0.671102 -2.66981,-1.311272 -4.02929,-1.919921 -1.35854,-0.608655 -2.73266,-1.185654 -4.1211,-1.730469 -1.38949,-0.544915 -2.79291,-1.057441 -4.20898,-1.53711 -1.41529,-0.479713 -2.84281,-0.926464 -4.28125,-1.339843 -1.43851,-0.413166 -2.88752,-0.792839 -4.3457,-1.138672 -1.45849,-0.345899 -2.92574,-0.657843 -4.40039,-0.935547 -1.47459,-0.277882 -2.95616,-0.521446 -4.44336,-0.730469 -1.48679,-0.209115 -2.97878,-0.383647 -4.47461,-0.523437 -1.49642,-0.139007 -2.99623,-0.243205 -4.49805,-0.3125 -1.50146,-0.07008 -3.00453,-0.105242 -4.50781,-0.105469 z"
           style="fill:#01a702;fill-opacity:1;stroke:none;stroke-width:0.5;stroke-linejoin:bevel;paint-order:fill markers stroke"
           id="path21" /><path
           d="m 168.06445,56.425781 c -3.83189,4.02e-4 -7.6587,0.309995 -11.44336,0.925781 -3.78483,0.615048 -7.51759,1.534683 -11.16211,2.75 -3.64454,1.21628 -7.19114,2.725059 -10.60546,4.511719 -3.41413,1.78562 -6.68707,3.844349 -9.78711,6.15625 -3.10007,2.312596 -6.019,4.872293 -8.72852,7.654297 -0.1328,0.158275 -0.26498,0.317155 -0.39648,0.476563 -2.55434,2.644326 -4.91407,5.480705 -7.0586,8.484375 -1.65447,2.435606 -3.16712,4.970388 -4.52929,7.589843 -0.50484,0.809873 -0.99458,1.629807 -1.46875,2.458985 -1.05383,2.279782 -1.99527,4.613166 -2.82032,6.990236 -0.559477,1.28338 -1.083839,2.58288 -1.572263,3.89648 -1.184225,3.74211 -2.080326,7.57471 -2.679687,11.46094 -0.599351,3.88551 -0.900446,7.81412 -0.900391,11.74805 -5.5e-5,3.93393 0.30104,7.86253 0.900391,11.74804 0.599458,3.88558 1.495559,7.71752 2.679687,11.45899 1.18403,3.74184 2.652933,7.38307 4.392583,10.88867 1.73975,3.50552 3.74553,6.8659 5.99804,10.04883 1.54673,2.06777 3.19762,4.05183 4.94532,5.94336 0.65877,0.82716 1.33479,1.63994 2.02734,2.4375 0.15984,0.19418 0.32067,0.38757 0.48242,0.58008 2.70956,2.78205 5.62839,5.34166 8.72852,7.65429 3.1001,2.31195 6.37291,4.3706 9.78711,6.15625 3.41443,1.78603 6.96092,3.2941 10.60546,4.50977 3.64454,1.216 7.37716,2.13625 11.16211,2.75195 3.78478,0.61514 7.61145,0.92407 11.44336,0.92383 3.83192,2.4e-4 7.65859,-0.30869 11.44336,-0.92383 3.78496,-0.6157 7.51758,-1.53595 11.16211,-2.75195 3.64455,-1.21567 7.19103,-2.72374 10.60547,-4.50977 0.68243,-0.4138 1.35838,-0.83904 2.02734,-1.27539 -2.19565,0.61201 -4.42035,1.125 -6.66601,1.53711 -3.78734,0.57592 -7.61662,0.86525 -11.45117,0.86524 -3.83455,1e-5 -7.66384,-0.28932 -11.45118,-0.86524 -3.78691,-0.57588 -7.52149,-1.43671 -11.16796,-2.57422 -3.64659,-1.13781 -7.19503,-2.54922 -10.61133,-4.2207 -1.63525,-0.88074 -3.23492,-1.82165 -4.79492,-2.82031 2.65547,-0.27841 5.36998,-0.67124 8.11132,-1.17383 1.05404,-0.19707 2.11066,-0.41009 3.16797,-0.63867 1.05717,-0.22885 2.11445,-0.47314 3.16992,-0.73243 1.05574,-0.25938 2.10911,-0.53364 3.15821,-0.82226 1.04907,-0.2887 2.09332,-0.59162 3.13086,-0.9082 1.03778,-0.31611 2.06835,-0.64574 3.08984,-0.98829 1.02068,-0.34296 2.03171,-0.69865 3.03125,-1.0664 1.00024,-0.36789 1.98846,-0.74768 2.96289,-1.13867 0.97452,-0.39093 1.93473,-0.79287 2.87891,-1.20508 0.94416,-0.41207 1.8718,-0.83419 2.78125,-1.26563 0.90917,-0.4313 1.79968,-0.87166 2.66992,-1.32031 0.87019,-0.44861 1.71966,-0.90527 2.54687,-1.36914 0.82723,-0.46402 1.63175,-0.935 2.41211,-1.41211 0.23281,-0.14662 0.4633,-0.29377 0.69141,-0.44141 0.46088,0.51986 0.95334,1.01102 1.47461,1.47071 1.44353,1.0457 3.04319,1.85838 4.74023,2.4082 1.69677,0.54975 3.46977,0.82987 5.25391,0.83008 1.78414,-2.1e-4 3.55714,-0.28033 5.25391,-0.83008 1.69704,-0.54982 3.2967,-1.3625 4.74023,-2.4082 1.44351,-1.04551 2.71296,-2.311 3.76172,-3.75 1.04901,-1.43875 1.86433,-3.03314 2.41602,-4.72461 0.55135,-1.69176 0.83213,-3.45949 0.83203,-5.23828 -2.2e-4,-0.63367 -0.0361,-1.26683 -0.10743,-1.89649 -0.0708,-0.63044 -0.17712,-1.25643 -0.31835,-1.875 -0.14203,-0.61811 -0.31874,-1.22779 -0.5293,-1.82617 -0.20971,-0.5984 -0.45294,-1.18461 -0.72852,-1.75586 -0.27582,-0.57144 -0.5836,-1.127 -0.92187,-1.66406 -0.33844,-0.5371 -0.70686,-1.05484 -1.10352,-1.55078 -0.39693,-0.49534 -0.82142,-0.96809 -1.27148,-1.41602 -0.44979,-0.44871 -0.9245,-0.87191 -1.42188,-1.26758 -0.49719,-0.39522 -1.01624,-0.76234 -1.55468,-1.09961 -0.53893,-0.33755 -1.09645,-0.64467 -1.66993,-0.91992 -0.57314,-0.27484 -1.16131,-0.51741 -1.76172,-0.72656 -0.57199,-0.19816 -1.15421,-0.36571 -1.74414,-0.50195 -0.0293,-0.009 -0.0586,-0.017 -0.0879,-0.0254 -0.61983,-0.14106 -1.24712,-0.24734 -1.8789,-0.31836 -0.63229,-0.0707 -1.26806,-0.10586 -1.9043,-0.10547 -1.78403,-4.2e-4 -3.55704,0.27904 -5.25391,0.82812 -0.59177,0.25937 -1.16823,0.55216 -1.72656,0.87696 -1.05311,0.40929 -2.06267,0.92225 -3.01367,1.53125 -1.44351,1.0455 -2.71296,2.311 -3.76172,3.75 -1.04901,1.43874 -1.86433,3.03314 -2.41601,4.72461 -0.55135,1.69174 -0.83213,3.45949 -0.83204,5.23828 0.0457,1.41409 0.26876,2.81694 0.66407,4.17578 -0.75919,0.38928 -1.53363,0.77227 -2.32227,1.14844 -0.90945,0.43143 -1.83709,0.85356 -2.78125,1.26562 -0.94418,0.41222 -1.90439,0.81415 -2.87891,1.20508 -0.97383,0.39033 -1.9614,0.76947 -2.96093,1.13672 -1.0002,0.36777 -2.01188,0.72345 -3.03321,1.0664 -1.02144,0.3432 -2.052,0.67347 -3.08984,0.99024 -1.03754,0.31659 -2.08179,0.6195 -3.13086,0.9082 -1.04915,0.28799 -2.10252,0.56159 -3.1582,0.82031 -1.05542,0.25993 -2.1127,0.50487 -3.16992,0.73438 -1.05731,0.22859 -2.11394,0.4416 -3.16797,0.63867 -3.03301,0.56757 -6.03512,1.0013 -8.96289,1.29492 -2.92816,0.29396 -5.76803,0.44639 -8.47852,0.45508 -2.2891,-0.0103 -4.47318,-0.12463 -6.5293,-0.3418 -2.32254,-2.27698 -4.48141,-4.70343 -6.46093,-7.26171 -1.56948,-2.17403 -3.01008,-4.43178 -4.31446,-6.76172 -0.58195,-0.86816 -1.144,-1.74869 -1.68554,-2.64063 -0.68211,-1.44126 -1.31341,-2.90452 -1.89258,-4.38672 -0.92418,-1.89669 -1.75976,-3.83246 -2.50391,-5.80078 -0.29605,-1.07178 -0.56569,-2.15034 -0.80859,-3.23437 1.24316,0.41042 2.56179,0.77869 3.95117,1.10351 2.35708,0.44744 4.88413,0.77915 7.55859,0.99219 0.3574,0.0499 0.71813,0.0975 1.08204,0.14258 3.08233,0.22424 6.34429,0.29221 9.74804,0.20312 3.40369,-0.089 6.93688,-0.33474 10.5586,-0.73437 2.87358,-0.34121 5.79151,-0.77717 8.73242,-1.30469 2.06401,-0.53194 4.13779,-1.00699 6.20703,-1.42187 1.22692,-0.1991 2.44673,-0.37568 3.65625,-0.5293 1.22009,-0.289 2.43877,-0.59253 3.6543,-0.91016 1.24116,-0.32473 2.47874,-0.66409 3.71093,-1.01758 1.23158,-0.35399 2.45744,-0.72201 3.67578,-1.10351 1.21865,-0.38131 2.42953,-0.77604 3.63086,-1.1836 1.20115,-0.40738 2.39249,-0.82751 3.57227,-1.25976 1.1797,-0.43221 2.34759,-0.87643 3.50195,-1.33203 1.15433,-0.45576 2.29487,-0.92279 3.41992,-1.40039 1.12498,-0.4774 2.23425,-0.96527 3.32618,-1.46289 0.62981,-0.29111 1.25364,-0.58545 1.87109,-0.88282 0.45373,-0.21124 0.90431,-0.42416 1.35156,-0.63867 1.05577,-0.51685 2.09209,-1.0425 3.10742,-1.57617 1.01445,-0.53274 2.00778,-1.07337 2.97852,-1.62109 0.97126,-0.54863 1.91964,-1.10425 2.84375,-1.66602 0.92461,-0.56128 1.82479,-1.12862 2.69922,-1.70117 0.87403,-0.57268 1.72211,-1.15044 2.54297,-1.73242 0.82069,-0.58147 1.61405,-1.16705 2.3789,-1.75586 0.7648,-0.58964 1.50084,-1.18238 2.20704,-1.77735 0.7067,-0.59453 1.38347,-1.19118 2.02929,-1.78906 0.64528,-0.5975 1.25952,-1.1961 1.8418,-1.79492 0.3515,-0.36923 0.69077,-0.73846 1.01758,-1.10742 0.21571,-0.22986 0.42667,-0.4597 0.63281,-0.68945 0.51706,-0.5989 1.00102,-1.19685 1.45117,-1.79297 0.22601,-0.30921 0.44285,-0.61786 0.65039,-0.92578 1.27878,0.85778 2.65741,1.55758 4.10547,2.08398 1.89993,0.61503 3.88522,0.92812 5.88281,0.92773 1.87213,-0.0183 3.7314,-0.31182 5.51758,-0.87109 0.12193,-0.0177 0.24368,-0.0366 0.36524,-0.0566 1.89907,-0.61549 3.68926,-1.52508 5.30468,-2.69531 0.59137,-0.52027 1.14976,-1.0767 1.67188,-1.66602 0.92523,-0.76261 1.77606,-1.61083 2.54101,-2.5332 1.17378,-1.61071 2.08602,-3.39564 2.70313,-5.28906 0.18748,-0.82103 0.31994,-1.65363 0.39648,-2.49219 0.27961,-1.10537 0.45872,-2.23368 0.53516,-3.371096 2.9e-4,-0.662793 -0.0343,-1.325186 -0.10352,-1.984375 -0.0698,-0.658621 -0.17407,-1.313189 -0.3125,-1.960937 -0.13817,-0.647843 -0.31029,-1.288067 -0.51562,-1.917969 -0.2056,-0.630501 -0.44422,-1.249865 -0.71484,-1.855469 -0.27024,-0.605162 -0.5721,-1.195838 -0.9043,-1.769531 -0.33191,-0.573806 -0.69374,-1.129928 -1.08399,-1.666016 -0.39065,-0.535775 -0.80921,-1.050824 -1.2539,-1.542968 -0.44512,-0.492318 -0.91584,-0.961078 -1.41016,-1.404297 -0.49402,-0.44333 -1.01102,-0.860585 -1.54883,-1.25 -0.5373,-0.389472 -1.09473,-0.750658 -1.66992,-1.082031 -0.57561,-0.330806 -1.16825,-0.63136 -1.77539,-0.900391 -0.60687,-0.269815 -1.22754,-0.50778 -1.85937,-0.712891 -0.63248,-0.204633 -1.27531,-0.376099 -1.92579,-0.513672 -0.14685,-0.02516 -0.294,-0.0486 -0.4414,-0.07031 -0.50498,-0.100612 -1.01389,-0.18076 -1.52539,-0.240234 -0.66113,-0.06912 -1.32548,-0.103678 -1.99024,-0.103516 -0.6434,0.06838 -1.28293,0.169428 -1.91601,0.302734 -1.34064,0.06831 -2.67037,0.277822 -3.9668,0.625 -1.4749,0.532707 -2.87819,1.245174 -4.17773,2.121094 -0.0509,0.02581 -0.10168,0.05186 -0.15235,0.07813 -0.33022,0.155982 -0.65589,0.321424 -0.97656,0.496094 -1.6158,1.170174 -3.03691,2.586663 -4.21094,4.197265 -0.8908,1.309327 -1.61389,2.724679 -2.15234,4.212891 -0.19504,0.353438 -0.37874,0.713016 -0.55078,1.078125 -0.61719,1.893546 -0.9316,3.87229 -0.93164,5.863281 4e-5,1.990999 0.31445,3.969739 0.93164,5.863289 0.44356,1.11906 0.99294,2.19362 1.64062,3.20898 -0.40381,0.36712 -0.81927,0.73374 -1.24609,1.09961 -0.65458,0.54904 -1.33456,1.09615 -2.03906,1.64062 -0.0558,0.0449 -0.11182,0.0899 -0.16797,0.13477 -0.76544,0.58947 -1.55946,1.1757 -2.38086,1.75781 -0.82028,0.58133 -1.6677,1.15844 -2.54102,1.73047 -0.87443,0.57255 -1.77461,1.13989 -2.69922,1.70117 -0.9241,0.56177 -1.87249,1.11739 -2.84375,1.66602 -0.97139,0.54774 -1.96537,1.08837 -2.98046,1.62109 -1.01469,0.53366 -2.05036,1.05931 -3.10547,1.57617 -1.05558,0.51632 -2.13033,1.02373 -3.22266,1.52149 -1.09193,0.49762 -2.2012,0.9855 -3.32617,1.46289 -1.12506,0.4776 -2.26559,0.94463 -3.41992,1.40039 -1.15436,0.4556 -2.32226,0.89983 -3.50196,1.33203 -1.18043,0.43226 -2.37243,0.85239 -3.57422,1.25977 -1.20067,0.40754 -2.4109,0.80226 -3.6289,1.18359 -1.219,0.38152 -2.44552,0.74954 -3.67774,1.10352 -1.23152,0.35347 -2.46846,0.69283 -3.70898,1.01757 -1.24079,0.32474 -2.4849,0.63479 -3.73047,0.92969 -1.24547,0.29529 -2.49218,0.57538 -3.73828,0.83985 -1.24562,0.26447 -2.49038,0.5133 -3.73242,0.74609 -3.72974,0.6983 -7.42699,1.25057 -11.04883,1.65039 -3.62171,0.39963 -7.15491,0.64537 -10.55859,0.73437 -3.40375,0.0891 -6.66572,0.0211 -9.74805,-0.20312 -3.08286,-0.22422 -5.97491,-0.60394 -8.64258,-1.13477 -2.28398,-0.47674 -4.39105,-1.06505 -6.30273,-1.75976 -0.14574,-1.30796 -0.25322,-2.61985 -0.32227,-3.9336 -3e-4,-3.68144 0.3008,-7.35797 0.90039,-10.99414 0.37002,-1.77995 0.81181,-3.54584 1.32422,-5.29296 0.211,-0.9262 0.44155,-1.84839 0.69141,-2.76563 0.1211,0.0232 0.24286,0.046 0.36523,0.0684 0.79168,0.0565 1.60009,0.0989 2.42383,0.12695 1.6701,0.15905 3.42161,0.25171 5.24219,0.27735 2.71037,-0.009 5.55047,-0.16113 8.47851,-0.45508 2.92781,-0.2943 5.93016,-0.72872 8.96289,-1.29688 1.05399,-0.19706 2.1107,-0.41009 3.16797,-0.63867 1.05713,-0.22884 2.11449,-0.47315 3.16992,-0.73242 1.05569,-0.25938 2.10915,-0.53365 3.15821,-0.82227 1.04903,-0.28868 2.09336,-0.59162 3.13086,-0.9082 1.03773,-0.31609 2.06839,-0.64575 3.08984,-0.98828 1.02064,-0.34295 2.03174,-0.69867 3.03125,-1.06641 1.0002,-0.36787 1.9885,-0.74769 2.96289,-1.13867 0.97442,-0.39025 1.93471,-0.79157 2.87891,-1.20312 0.94412,-0.41205 1.87184,-0.83421 2.78125,-1.26563 0.9092,-0.431938 1.79978,-0.872995 2.66992,-1.322267 0.45251,-0.238093 0.89924,-0.47839 1.33984,-0.720703 0.36723,0.403072 0.75378,0.788313 1.15821,1.154297 1.44347,1.045673 3.04324,1.858413 4.74023,2.408203 1.69681,0.54907 3.46994,0.82855 5.25391,0.82813 1.78397,4.2e-4 3.55709,-0.27906 5.2539,-0.82813 1.69699,-0.54979 3.29676,-1.36253 4.74024,-2.408203 1.44346,-1.04547 2.71299,-2.31105 3.76172,-3.75 1.04897,-1.438701 1.86435,-3.033198 2.41601,-4.724609 0.16012,-0.709371 0.2743,-1.428358 0.3418,-2.152344 0.25836,-1.011363 0.42248,-2.044486 0.49023,-3.085938 -1.4e-4,-0.634289 -0.036,-1.268155 -0.10742,-1.898437 -0.0709,-0.629763 -0.1772,-1.255149 -0.31836,-1.873047 -0.14195,-0.618746 -0.31867,-1.229136 -0.5293,-1.828125 -0.2097,-0.598379 -0.45294,-1.184637 -0.72851,-1.755859 -0.27581,-0.571416 -0.58361,-1.127026 -0.92188,-1.664063 -0.33849,-0.536411 -0.70693,-1.053544 -1.10351,-1.548828 -0.0912,-0.104637 -0.18363,-0.20817 -0.27735,-0.310547 -0.31496,-0.383433 -0.64669,-0.752964 -0.99414,-1.107422 -0.44982,-0.448025 -0.92457,-0.870604 -1.42187,-1.265625 -0.49712,-0.395876 -1.01622,-0.763678 -1.55469,-1.101562 -0.50049,-0.309709 -1.01686,-0.593322 -1.54687,-0.84961 -0.0409,-0.02295 -0.0819,-0.04574 -0.12305,-0.06836 -0.57308,-0.275493 -1.16129,-0.518734 -1.76172,-0.728516 -0.60031,-0.209135 -1.212,-0.384555 -1.83203,-0.52539 -0.61981,-0.141047 -1.24715,-0.247342 -1.87891,-0.31836 -0.63222,-0.07129 -1.26804,-0.10716 -1.90429,-0.107422 -0.27051,0.03584 -0.54014,0.07818 -0.8086,0.126954 -1.50641,0.03698 -3.0014,0.273444 -4.44531,0.703125 -1.69698,0.549794 -3.29677,1.362541 -4.74023,2.408203 -1.44346,1.045466 -2.713,2.311055 -3.76172,3.75 -0.26587,0.463506 -0.50966,0.939337 -0.73047,1.425781 -0.68096,1.034919 -1.24623,2.141221 -1.68555,3.298828 -0.55133,1.691683 -0.83213,3.459562 -0.83203,5.238281 0.0606,1.216175 0.25244,2.422462 0.57227,3.597657 -0.19712,0.09028 -0.39506,0.180135 -0.59375,0.269531 -0.94349,0.412182 -1.90313,0.81415 -2.87696,1.205078 -0.97439,0.39098 -1.96269,0.770798 -2.96289,1.138672 -1.00016,0.367757 -2.01192,0.72347 -3.0332,1.066406 -1.02145,0.342533 -2.05211,0.672186 -3.08985,0.988281 -1.03749,0.316574 -2.08183,0.619517 -3.13085,0.908203 -1.04906,0.288613 -2.10252,0.56289 -3.15821,0.822266 -1.05543,0.259273 -2.11279,0.503581 -3.16992,0.732422 -1.05726,0.228576 -2.11398,0.441613 -3.16797,0.638672 -3.03272,0.56815 -6.03508,1.002573 -8.96289,1.296875 -2.92749,0.293288 -5.76695,0.445074 -8.47656,0.453125 -1.5045,-0.03 -2.96069,-0.106298 -4.36133,-0.228516 0.15433,-0.366484 0.31191,-0.731771 0.47266,-1.095703 0.73372,-1.232404 1.50629,-2.443377 2.3164,-3.630859 1.13051,-1.979366 2.35999,-3.90572 3.6836,-5.771485 2.2542,-2.978012 4.74923,-5.781988 7.46093,-8.384765 2.71135,-2.603144 5.63224,-4.998248 8.73438,-7.16211 2.75483,-1.884208 5.64305,-3.583198 8.64258,-5.083984 0.38125,-0.229284 0.76479,-0.455239 1.15039,-0.677734 3.41624,-1.671449 6.9648,-3.082907 10.61133,-4.220704 3.6464,-1.137491 7.38111,-1.998343 11.16796,-2.574218 3.78727,-0.575905 7.6167,-0.86525 11.45118,-0.865235 0.68833,0.0089 1.37665,0.02714 2.06445,0.05469 l -0.0195,-0.01563 c -1.13932,-0.32142 -2.28631,-0.614519 -3.43945,-0.878906 -1.28981,-0.291196 -2.58736,-0.546537 -3.89063,-0.765625 -1.30343,-0.21928 -2.6127,-0.402318 -3.92578,-0.548829 -1.31316,-0.146601 -2.63025,-0.256684 -3.94922,-0.330078 -1.31899,-0.07381 -2.63999,-0.110942 -3.96094,-0.111328 z m 15.45117,18.748047 c 0.47118,-1.16e-4 0.94182,0.03448 1.40821,0.103516 0.46619,0.06953 0.92704,0.17332 1.3789,0.310547 0.15503,0.05465 0.30874,0.113264 0.46094,0.175781 0.29193,0.09685 0.57938,0.207655 0.86133,0.332031 0.42902,0.202277 0.84353,0.435967 1.24023,0.699219 0.39662,0.262849 0.77457,0.554634 1.13086,0.873047 0.0896,0.08942 0.17747,0.180591 0.26368,0.273437 0.25742,0.238526 0.50257,0.490848 0.73437,0.75586 0.30844,0.367393 0.59109,0.75709 0.8457,1.166015 0.2551,0.408579 0.48161,0.835484 0.67774,1.277344 0.19537,0.442389 0.35986,0.898668 0.49219,1.365234 0.13293,0.465953 0.23345,0.94116 0.30078,1.421875 0.0667,0.481289 0.1,0.966943 0.0996,1.453125 -0.039,1.081947 -0.24474,2.150738 -0.60938,3.166016 -0.0387,0.248464 -0.0862,0.495396 -0.14258,0.740234 -0.49777,1.238132 -1.2272,2.363141 -2.14648,3.310547 -0.91842,0.947699 -2.0089,1.699688 -3.20899,2.212891 -1.20058,0.51306 -2.48754,0.777221 -3.78711,0.777344 -1.29956,-1.23e-4 -2.58652,-0.264284 -3.7871,-0.777344 -0.40657,-0.238803 -0.79625,-0.507074 -1.16602,-0.802735 -0.73582,-0.380486 -1.42283,-0.854242 -2.04492,-1.410156 -0.68999,-0.77415 -1.25992,-1.653753 -1.68946,-2.607422 -0.16103,-0.227781 -0.31287,-0.462379 -0.45507,-0.703125 -0.45153,-1.1642 -0.69123,-2.404418 -0.70703,-3.658203 -0.0166,-0.08248 -0.0323,-0.165172 -0.0469,-0.248047 1.6e-4,-1.340452 0.25636,-2.667916 0.75391,-3.90625 0.49719,-1.237956 1.22595,-2.362966 2.14453,-3.310547 0.91899,-0.947912 2.01016,-1.699921 3.21094,-2.21289 1.20058,-0.513057 2.48755,-0.777221 3.7871,-0.777344 z m 51.07227,13.425781 c 0.51106,1.98e-4 1.0215,0.03675 1.52734,0.109375 0.50645,0.07237 1.0071,0.180729 1.49805,0.324219 0.1914,0.06497 0.38094,0.135309 0.56836,0.210938 0.29423,0.0949 0.58422,0.202426 0.86914,0.322265 0.46482,0.211959 0.91389,0.456732 1.34375,0.732422 0.43087,0.275758 0.84144,0.581891 1.22852,0.916016 0.38665,0.333834 0.74892,0.694794 1.08398,1.080078 0.33486,0.385875 0.64164,0.795138 0.91797,1.224609 0.27645,0.42862 0.52188,0.876392 0.73437,1.339844 0.21235,0.463895 0.3912,0.942346 0.53516,1.431641 0.1443,0.489652 0.2533,0.988993 0.32617,1.49414 0.0728,0.50456 0.10934,1.013689 0.10938,1.523438 -0.005,1.380146 -0.27759,2.746416 -0.80274,4.023436 -0.005,0.0248 -0.0103,0.0495 -0.0156,0.0742 -0.53965,1.29932 -1.33078,2.48003 -2.32813,3.47461 -0.99722,0.99461 -2.18125,1.78374 -3.48437,2.32227 -0.25456,0.0601 -0.51125,0.11092 -0.76953,0.15234 -1.07149,0.39649 -2.19965,0.62001 -3.3418,0.66211 -1.41077,2.4e-4 -2.80784,-0.27652 -4.11133,-0.81445 -0.96511,-0.45362 -1.85709,-1.04805 -2.64648,-1.76368 -0.28857,-0.17297 -0.56884,-0.35938 -0.83985,-0.55859 -0.99733,-0.99456 -1.78848,-2.1753 -2.32812,-3.47461 -0.21784,-0.7027 -0.36249,-1.42596 -0.43164,-2.1582 -0.18863,-0.6332 -0.31809,-1.282485 -0.38672,-1.939456 0.0682,-0.771242 0.22016,-1.532898 0.45312,-2.271485 0.0683,-0.618124 0.19054,-1.229189 0.36524,-1.826172 0.53965,-1.299312 1.33078,-2.480042 2.32812,-3.474609 0.23244,-0.16834 0.47158,-0.327331 0.7168,-0.476562 0.46118,-0.365718 0.95178,-0.693003 1.4668,-0.978516 0.41249,-0.320271 0.84791,-0.610117 1.30273,-0.867188 1.30348,-0.537935 2.70057,-0.814699 4.11133,-0.814453 z m -32.1582,62.523441 c 0.0899,0.005 0.17977,0.0119 0.26953,0.0195 0.42132,0.005 0.84197,0.0353 1.25976,0.0898 0.2631,0.0469 0.52435,0.10359 0.78321,0.16992 0.23997,0.0433 0.47839,0.0948 0.71484,0.1543 0.49069,0.14409 0.97042,0.32293 1.43555,0.53516 0.46543,0.21125 0.91515,0.45536 1.3457,0.73047 0.43088,0.27576 0.84143,0.58188 1.22852,0.91601 0.38666,0.33384 0.74891,0.69479 1.08398,1.08008 0.33486,0.38588 0.64164,0.79513 0.91797,1.22461 0.27646,0.42863 0.52187,0.87638 0.73437,1.33984 0.21235,0.46391 0.39119,0.94234 0.53516,1.43164 0.1443,0.48967 0.2533,0.98899 0.32617,1.49414 0.0728,0.50457 0.10934,1.01368 0.10938,1.52344 -2e-5,1.40685 -0.2781,2.79992 -0.81836,4.09961 -0.53966,1.29934 -1.33076,2.48002 -2.32813,3.47461 -0.99799,0.99413 -2.18265,1.78258 -3.48632,2.32031 -1.30337,0.53862 -2.70041,0.81604 -4.11133,0.81641 -1.41093,-3.7e-4 -2.80797,-0.27779 -4.11133,-0.81641 -0.59973,-0.32188 -1.16739,-0.69988 -1.69531,-1.1289 -0.63484,-0.33646 -1.23421,-0.7356 -1.78907,-1.19141 -0.99736,-0.99458 -1.78846,-2.17527 -2.32812,-3.47461 -0.29589,-0.87476 -0.47708,-1.784 -0.53906,-2.70508 -0.12399,-0.45816 -0.2173,-0.92403 -0.2793,-1.39453 2.7e-4,-1.40619 0.27835,-2.79858 0.81836,-4.09766 0.53966,-1.29933 1.33076,-2.48002 2.32812,-3.4746 0.99724,-0.99462 2.18125,-1.78374 3.48438,-2.32227 1.3035,-0.53794 2.70054,-0.8147 4.11133,-0.81445 z"
           style="fill:#0d75b2;fill-opacity:1;stroke:none;stroke-width:1.0739;stroke-linejoin:bevel;paint-order:fill markers stroke"
           id="path20" /></g><text
         xml:space="preserve"
         style="font-style:normal;font-variant:normal;font-weight:normal;font-stretch:normal;font-size:17.8591px;line-height:1.25;font-family:Arial;-inkscape-font-specification:Arial;font-variant-ligatures:normal;font-variant-caps:normal;font-variant-numeric:normal;font-variant-east-asian:normal;letter-spacing:0px;word-spacing:0px;fill:#01a702;fill-opacity:1;stroke:#01a702;stroke-width:0.446125;stroke-dasharray:none;stroke-opacity:1"
         x="85.685371"
         y="112.08852"
         id="text5"
         transform="scale(0.88892714,1.1249516)"><tspan
           sodipodi:role="line"
           id="tspan5"
           style="font-style:normal;font-variant:normal;font-weight:bold;font-stretch:normal;font-size:17.8591px;font-family:Arial;-inkscape-font-specification:Arial;font-variant-ligatures:normal;font-variant-caps:normal;font-variant-numeric:normal;font-variant-east-asian:normal;fill:#01a702;fill-opacity:1;stroke:#01a702;stroke-width:0.446125;stroke-dasharray:none;stroke-opacity:1"
           x="85.685371"
           y="112.08852">ONE</tspan></text><text
         xml:space="preserve"
         style="font-style:normal;font-variant:normal;font-weight:normal;font-stretch:normal;font-size:17.8591px;line-height:1.25;font-family:Arial;-inkscape-font-specification:Arial;font-variant-ligatures:normal;font-variant-caps:normal;font-variant-numeric:normal;font-variant-east-asian:normal;letter-spacing:0px;word-spacing:0px;fill:#0d75b2;fill-opacity:1;stroke:url(#linearGradient10);stroke-width:0.246;stroke-dasharray:none"
         x="126.00561"
         y="112.24376"
         id="text5-1"
         transform="scale(0.88892714,1.1249516)"><tspan
           sodipodi:role="line"
           id="tspan5-9"
           style="font-style:normal;font-variant:normal;font-weight:bold;font-stretch:normal;font-size:17.8591px;font-family:Arial;-inkscape-font-specification:Arial;font-variant-ligatures:normal;font-variant-caps:normal;font-variant-numeric:normal;font-variant-east-asian:normal;fill:#0d75b2;fill-opacity:1;stroke:url(#linearGradient10);stroke-width:0.246;stroke-dasharray:none"
           x="126.00561"
           y="112.24376">KONEK</tspan></text><text
         xml:space="preserve"
         style="font-style:normal;font-variant:normal;font-weight:normal;font-stretch:normal;font-size:5.72808px;line-height:1.25;font-family:Georgia;-inkscape-font-specification:'Georgia, Normal';font-variant-ligatures:normal;font-variant-caps:normal;font-variant-numeric:normal;font-variant-east-asian:normal;letter-spacing:0px;word-spacing:0px;stroke-width:0.0848615"
         x="82.451416"
         y="138.9827"
         id="text9"
         transform="scale(1.045594,0.95639417)"><tspan
           sodipodi:role="line"
           id="tspan9"
           style="font-style:normal;font-variant:normal;font-weight:normal;font-stretch:normal;font-size:5.72808px;font-family:Georgia;-inkscape-font-specification:'Georgia, Normal';font-variant-ligatures:normal;font-variant-caps:normal;font-variant-numeric:normal;font-variant-east-asian:normal;stroke-width:0.0848615"
           x="82.451416"
           y="138.9827">Network and Data Solution</tspan></text></g></g></svg>
